<mxfile host="app.diagrams.net" modified="2023-09-03T15:31:42.852Z" agent="Mozilla/5.0 (Macintosh; Intel Mac OS X 10_15_7) AppleWebKit/537.36 (KHTML, like Gecko) Chrome/116.0.0.0 Safari/537.36" etag="gUwsJZEuH8-UaQ7lM-w8" version="21.7.2" type="device">
  <diagram name="第 1 页" id="sE4ty2KnzMjDkDgEJrM9">
    <mxGraphModel dx="1193" dy="731" grid="1" gridSize="10" guides="1" tooltips="1" connect="1" arrows="1" fold="1" page="1" pageScale="1" pageWidth="827" pageHeight="1169" math="0" shadow="0">
      <root>
        <mxCell id="0" />
        <mxCell id="1" parent="0" />
        <mxCell id="4uikrzWbj6Hve89kQUTt-12" style="edgeStyle=orthogonalEdgeStyle;rounded=0;orthogonalLoop=1;jettySize=auto;html=1;entryX=0.553;entryY=0.005;entryDx=0;entryDy=0;entryPerimeter=0;" edge="1" parent="1" source="4uikrzWbj6Hve89kQUTt-1" target="4uikrzWbj6Hve89kQUTt-4">
          <mxGeometry relative="1" as="geometry" />
        </mxCell>
        <mxCell id="4uikrzWbj6Hve89kQUTt-1" value="paragraph #1&lt;br&gt;paragraph #2&lt;br&gt;&lt;div style=&quot;&quot;&gt;paragraph #3&lt;/div&gt;&lt;div style=&quot;&quot;&gt;&lt;b&gt;.&lt;/b&gt;&lt;/div&gt;&lt;div style=&quot;&quot;&gt;&lt;b&gt;.&lt;/b&gt;&lt;/div&gt;&lt;div style=&quot;&quot;&gt;&lt;b&gt;.&lt;/b&gt;&lt;/div&gt;&lt;div style=&quot;&quot;&gt;paragraph #N&lt;/div&gt;" style="rounded=1;whiteSpace=wrap;html=1;align=center;" vertex="1" parent="1">
          <mxGeometry x="320" y="10" width="100" height="120" as="geometry" />
        </mxCell>
        <mxCell id="4uikrzWbj6Hve89kQUTt-7" value="" style="edgeStyle=orthogonalEdgeStyle;rounded=0;orthogonalLoop=1;jettySize=auto;html=1;" edge="1" parent="1" source="4uikrzWbj6Hve89kQUTt-4" target="4uikrzWbj6Hve89kQUTt-6">
          <mxGeometry relative="1" as="geometry" />
        </mxCell>
        <mxCell id="4uikrzWbj6Hve89kQUTt-4" value="&lt;b&gt;Updating:&lt;br&gt;Update-needed paragraphs:&lt;br&gt;&lt;/b&gt;&lt;br&gt;paragraph #2&lt;br&gt;paragraph #3" style="shape=cylinder3;whiteSpace=wrap;html=1;boundedLbl=1;backgroundOutline=1;size=15;" vertex="1" parent="1">
          <mxGeometry x="310" y="170" width="110" height="140" as="geometry" />
        </mxCell>
        <mxCell id="4uikrzWbj6Hve89kQUTt-9" value="" style="edgeStyle=orthogonalEdgeStyle;rounded=0;orthogonalLoop=1;jettySize=auto;html=1;" edge="1" parent="1" source="4uikrzWbj6Hve89kQUTt-6" target="4uikrzWbj6Hve89kQUTt-8">
          <mxGeometry relative="1" as="geometry" />
        </mxCell>
        <mxCell id="4uikrzWbj6Hve89kQUTt-6" value="&lt;br&gt;&lt;span style=&quot;border-color: var(--border-color);&quot;&gt;paragraph #2 (Changed)&lt;br&gt;&lt;/span&gt;&lt;span style=&quot;border-color: var(--border-color);&quot;&gt;paragraph #3 (Changed)&lt;br&gt;&lt;span style=&quot;border-color: var(--border-color);&quot;&gt;paragraph #1 (Unchanged)&lt;br&gt;&lt;/span&gt;&lt;span style=&quot;border-color: var(--border-color);&quot;&gt;paragraph #4 (Unchanged)&lt;br&gt;&lt;/span&gt;&lt;span style=&quot;border-color: var(--border-color);&quot;&gt;paragraph #5 (Unchanged)&lt;br&gt;&lt;b&gt;.&lt;br&gt;.&lt;br&gt;.&lt;/b&gt;&lt;br&gt;&lt;/span&gt;&lt;span style=&quot;border-color: var(--border-color);&quot;&gt;paragraph #N (Unchanged)&lt;/span&gt;&lt;br&gt;&lt;/span&gt;&lt;b&gt;&lt;br&gt;&lt;/b&gt;" style="shape=cylinder3;whiteSpace=wrap;html=1;boundedLbl=1;backgroundOutline=1;size=15;" vertex="1" parent="1">
          <mxGeometry x="285" y="330" width="160" height="190" as="geometry" />
        </mxCell>
        <mxCell id="4uikrzWbj6Hve89kQUTt-8" value="&lt;b style=&quot;border-color: var(--border-color);&quot;&gt;&lt;b style=&quot;border-color: var(--border-color);&quot;&gt;paragraph #1 (Unchanged)&lt;br&gt;&lt;b style=&quot;border-color: var(--border-color);&quot;&gt;paragraph #2 (Changed)&lt;br&gt;&lt;/b&gt;&lt;b style=&quot;border-color: var(--border-color);&quot;&gt;paragraph #3 (Changed)&lt;/b&gt;&lt;br&gt;&lt;/b&gt;&lt;b style=&quot;border-color: var(--border-color);&quot;&gt;paragraph #4 (Unchanged)&lt;br&gt;&lt;/b&gt;&lt;b style=&quot;border-color: var(--border-color);&quot;&gt;paragraph #5 (Unchanged)&lt;br&gt;.&lt;br&gt;.&lt;br&gt;&lt;/b&gt;&lt;b style=&quot;border-color: var(--border-color);&quot;&gt;paragraph #N (Unchanged)&lt;/b&gt;&lt;br&gt;&lt;/b&gt;&lt;b&gt;&lt;br&gt;&lt;/b&gt;" style="shape=cylinder3;whiteSpace=wrap;html=1;boundedLbl=1;backgroundOutline=1;size=15;" vertex="1" parent="1">
          <mxGeometry x="570" y="140" width="160" height="190" as="geometry" />
        </mxCell>
        <mxCell id="4uikrzWbj6Hve89kQUTt-10" value="Merge&amp;nbsp;&lt;br&gt;with&amp;nbsp;&lt;br&gt;indices" style="text;html=1;align=center;verticalAlign=middle;resizable=0;points=[];autosize=1;strokeColor=none;fillColor=none;fontStyle=1" vertex="1" parent="1">
          <mxGeometry x="500" y="300" width="60" height="60" as="geometry" />
        </mxCell>
        <mxCell id="4uikrzWbj6Hve89kQUTt-11" value="Updated Article" style="text;html=1;align=center;verticalAlign=middle;resizable=0;points=[];autosize=1;strokeColor=none;fillColor=none;fontStyle=1" vertex="1" parent="1">
          <mxGeometry x="595" y="140" width="110" height="30" as="geometry" />
        </mxCell>
      </root>
    </mxGraphModel>
  </diagram>
</mxfile>
